<?xml version="1.0" encoding="UTF-8"?>
<svg version="1.1" xmlns="http://www.w3.org/2000/svg" width="352" height="353">
<path d="M0 0 C6.69174119 5.80384025 10.18291349 11.79805351 10.95703125 20.60546875 C11.09963042 28.55213177 8.43273723 34.28001459 3 40 C-2.12796846 44.73166177 -7.46808494 46.94217652 -14.44921875 47.03125 C-22.46675728 46.54012972 -28.25224246 44.15193365 -33.8125 38.3125 C-38.00369743 33.16440817 -39.67433014 28.03958533 -40.375 21.5 C-39.46005471 12.96051065 -36.51962709 6.71760947 -30 1 C-20.28219028 -5.27306373 -10.24903227 -5.52096867 0 0 Z " fill="#020137" transform="translate(290,155)"/>
<path d="M0 0 C6.24640343 5.03609866 9.94657133 11.02578998 11 19 C11.25682569 26.69309694 9.37831762 33.11454463 4.30859375 38.9453125 C-1.14882587 44.21530559 -6.96807627 46.82464508 -14.578125 47.08984375 C-22.49371991 46.61636491 -28.34098458 44.05873586 -33.8125 38.3125 C-38.00369743 33.16440817 -39.67433014 28.03958533 -40.375 21.5 C-39.40872349 12.48141924 -36.10815197 5.83592116 -29 0 C-19.10348723 -5.28192647 -9.89785008 -5.26843957 0 0 Z " fill="#020137" transform="translate(91,155)"/>
<path d="M0 0 C5.58455335 3.9519923 9.24852136 8.96656025 11.19140625 15.55078125 C12.26296774 23.95658585 11.12125111 30.58442618 6.19140625 37.55078125 C1.64689341 42.65661159 -3.68681102 46.02534153 -10.56640625 46.90234375 C-18.87185592 47.30593338 -25.37896007 45.49343618 -31.65625 39.90625 C-37.55462328 33.48615328 -39.35473469 27.10348259 -39.0859375 18.48046875 C-38.42260904 11.47347797 -36.0241438 6.84842295 -30.8125 2.09375 C-21.47789353 -5.09371502 -10.26090056 -5.8469016 0 0 Z " fill="#010037" transform="translate(189.80859375,254.44921875)"/>
<path d="M0 0 C6.85134625 3.90405765 11.37886049 9.32558276 13.625 16.9375 C14.69656149 25.3433046 13.55484486 31.97114493 8.625 38.9375 C4.08048716 44.04333034 -1.25321727 47.41206028 -8.1328125 48.2890625 C-16.43826217 48.69265213 -22.94536632 46.88015493 -29.22265625 41.29296875 C-35.02530855 34.97705973 -37.03023601 28.51776415 -36.78515625 20.00390625 C-35.89715814 13.36506323 -32.91510733 8.01568552 -28 3.5 C-19.55741407 -2.88165489 -9.76914642 -4.46463253 0 0 Z " fill="#010037" transform="translate(187.375,54.0625)"/>
<path d="M0 0 C5.30123244 3.7505318 9.34621732 8.38107238 11.296875 14.625 C12.11406294 22.57832918 12.29087175 30.07405133 7.296875 36.625 C2.54516586 42.43525821 -2.12230929 46.09067156 -9.68359375 46.97265625 C-18.35282944 47.36902224 -24.93550372 45.78656773 -31.546875 40.015625 C-36.33308335 34.90095137 -38.78613446 29.18310675 -39.078125 22.1875 C-38.76647398 14.32847428 -36.2428547 8.1647297 -30.703125 2.625 C-21.25524899 -4.61167099 -10.47734873 -5.87265406 0 0 Z " fill="#FD9E77" transform="translate(259.703125,84.375)"/>
<path d="M0 0 C6.00470833 3.70736041 10.6106536 10.03137627 12.7421875 16.75390625 C13.38256333 25.07879203 12.5699155 32.16164738 7.3671875 38.94140625 C1.75008984 44.84761923 -4.59141695 47.47219493 -12.6953125 47.75390625 C-18.37469624 47.52004927 -22.39632125 46.38176782 -27.0703125 43.19140625 C-27.9571875 42.65515625 -28.8440625 42.11890625 -29.7578125 41.56640625 C-35.18395392 35.99361235 -37.94799402 28.89747047 -38.0703125 21.19140625 C-37.10809319 12.66264415 -33.57725388 6.885951 -26.91015625 1.515625 C-18.62879327 -4.44484644 -8.9401725 -4.56553293 0 0 Z " fill="#FD9E77" transform="translate(118.0703125,83.80859375)"/>
<path d="M0 0 C5.324259 3.89177979 9.54202664 8.90342368 11.640625 15.19921875 C12.2543764 23.11761796 12.79988965 30.73564562 7.640625 37.19921875 C2.4918469 42.82642314 -2.93917504 46.52288448 -10.58203125 47.4765625 C-18.17723431 47.80225731 -24.71052566 45.3388845 -30.75390625 40.7890625 C-35.8340797 35.75833113 -38.45691716 29.01309867 -38.609375 21.94921875 C-38.46909501 14.15730294 -35.69024073 8.60667665 -30.359375 2.96484375 C-22.17834555 -4.25747131 -9.46660178 -5.66802837 0 0 Z " fill="#FD9F77" transform="translate(259.359375,224.80078125)"/>
<path d="M0 0 C6.95245371 4.02926294 10.90014017 9.02013679 13.09375 16.75 C14.48927596 23.26245446 13.44147873 29.01677342 10.5625 34.9375 C6.06499996 41.51523908 0.51871722 46.30079246 -7.4375 47.9375 C-15.21960664 48.8610574 -22.23410923 47.1235598 -28.51953125 42.359375 C-34.17385535 37.07406994 -36.88072784 31.02674535 -37.49609375 23.328125 C-37.30450302 15.5112233 -34.07395383 8.3231794 -28.4375 2.9375 C-19.98968469 -3.35244944 -9.60108123 -4.34575256 0 0 Z " fill="#FD9F77" transform="translate(117.4375,224.0625)"/>
<path d="M0 0 C5.63752047 3.89257366 9.43754807 8.30863223 11.625 14.8125 C12.59289969 20.40480931 11.74145176 25.02772144 8.95703125 29.95703125 C5.31352839 35.03229184 0.80116679 38.52579859 -5.375 39.8125 C-10.90438363 40.32447997 -15.59263455 39.64441052 -20.375 36.8125 C-26.11237922 31.61510941 -29.35903719 26.78371421 -29.75 19 C-29.61180237 13.83294405 -28.55795461 9.93006178 -25.375 5.8125 C-17.99263175 -1.00542158 -9.75939552 -3.43386139 0 0 Z " fill="#020137" transform="translate(238.375,28.1875)"/>
<path d="M0 0 C5.63752047 3.89257366 9.43754807 8.30863223 11.625 14.8125 C12.59289969 20.40480931 11.74145176 25.02772144 8.95703125 29.95703125 C5.31352839 35.03229184 0.80116679 38.52579859 -5.375 39.8125 C-12.28908147 40.45269273 -17.72359353 38.92157333 -23.125 34.625 C-27.55587817 29.08640229 -30.0593612 24.19573653 -29.69921875 16.98046875 C-28.86800708 11.4223666 -26.31196386 6.74946386 -22.375 2.8125 C-15.61761147 -2.08740732 -7.81228184 -2.74876583 0 0 Z " fill="#020137" transform="translate(131.375,28.1875)"/>
<path d="M0 0 C6.21805525 2.70430214 9.61292338 5.97289622 12.390625 12.1484375 C14.24057105 17.69827566 14.21525683 23.06015737 11.703125 28.3984375 C8.22941148 34.50780078 4.14346784 38.01003727 -2.609375 40.1484375 C-8.61242085 40.92542748 -13.25473191 40.13468076 -18.609375 37.1484375 C-22.87259334 33.46656712 -27.24977073 28.6501578 -27.84765625 22.828125 C-28.02681089 16.05796537 -27.11433083 11.95352059 -23.609375 6.1484375 C-22.949375 6.1484375 -22.289375 6.1484375 -21.609375 6.1484375 C-21.609375 5.4884375 -21.609375 4.8284375 -21.609375 4.1484375 C-14.20240539 -0.18131509 -8.41849262 -2.74735238 0 0 Z " fill="#010137" transform="translate(236.609375,285.8515625)"/>
<path d="M0 0 C6.09586362 2.66043384 9.95653635 7.02897472 13.24609375 12.7109375 C14.80442249 19.25591821 14.41394615 24.66332471 11.06640625 30.55078125 C7.58432486 35.75114463 3.82222844 38.45141151 -2.12890625 40.3359375 C-9.42216373 41.57185264 -15.04503045 39.32608307 -21.12890625 35.3359375 C-25.60609506 30.97067841 -27.18254875 26.18278964 -27.50390625 20.0234375 C-27.41648252 14.88292239 -25.50298346 10.81912794 -23.12890625 6.3359375 C-22.46890625 6.3359375 -21.80890625 6.3359375 -21.12890625 6.3359375 C-21.12890625 5.6759375 -21.12890625 5.0159375 -21.12890625 4.3359375 C-14.04195763 0.19325354 -8.13881784 -2.53871382 0 0 Z " fill="#010037" transform="translate(129.12890625,285.6640625)"/>
<path d="M0 0 C4.4983629 3.83683894 7.7788806 8.47492008 8.3984375 14.44921875 C8.63818307 21.65080681 7.98177088 26.34863276 3.125 31.8125 C-1.42184321 36.35934321 -5.14573654 37.96889436 -11.5625 38.125 C-18.59392348 38.05698139 -23.15129956 36.46258691 -28.1875 31.5625 C-31.88996609 25.52885156 -33.59720637 20.47875736 -32.57421875 13.33984375 C-30.94388258 7.44695268 -27.563909 2.50701139 -22.3125 -0.6875 C-14.64314239 -4.03412878 -7.67163709 -3.16871967 0 0 Z " fill="#020137" transform="translate(58.875,212.1875)"/>
<path d="M0 0 C3.93672844 4.81393424 6.40213692 9.69219511 6 16 C4.76606432 22.55089428 2.92993978 28.11677541 -2.61328125 32.18359375 C-8.44224252 35.67131591 -14.36699146 35.76714626 -21 35 C-26.77339661 33.0055539 -30.32459029 29.36868269 -33.8125 24.4375 C-35.95238923 18.2430838 -35.95238923 11.7569162 -33.8125 5.5625 C-29.98313586 0.14857139 -25.73099354 -3.87202521 -19.3125 -5.8125 C-12.17663895 -6.21641666 -5.44206743 -4.80926889 0 0 Z " fill="#020137" transform="translate(320,215)"/>
<path d="M0 0 C4.84974831 2.87088695 7.74237782 7.16463345 9.5 12.4375 C10.21931255 19.37372817 10.21662723 25.00005377 6 30.75 C2.1626489 35.06701999 -1.37824783 38.09592324 -7.3203125 38.74609375 C-14.33021414 39.01952963 -19.08608366 38.61148185 -24.69140625 34.19921875 C-29.56550812 29.45144349 -31.16973818 24.69493521 -31.6015625 17.9296875 C-31.35365573 11.84643686 -28.7839203 6.7214203 -24.5 2.4375 C-17.56858801 -3.01914348 -8.09742865 -3.54934728 0 0 Z " fill="#010137" transform="translate(57.5,104.5625)"/>
<path d="M0 0 C5.64817562 3.17844103 9.19698393 7.96507811 11.18359375 14.09765625 C12.26462608 19.73040368 11.00241046 25.03601321 8.5546875 30.15625 C5.24510976 34.58260643 1.86819101 37.48449779 -3.4453125 39.15625 C-9.90140516 39.82532017 -15.97964451 40.02221028 -21.4453125 36.15625 C-26.06076674 32.18481263 -29.10746112 28.52087953 -29.73046875 22.31640625 C-29.94367997 14.81693348 -29.11327786 10.25685839 -24.1328125 4.46875 C-17.23634331 -1.46542117 -8.76351973 -3.02383428 0 0 Z " fill="#010037" transform="translate(314.4453125,103.84375)"/>
<path d="M0 0 C3.77702297 2.63513231 6.60374735 5.7074947 8.6875 9.875 C9.1947965 15.43031248 9.45010422 20.29330236 7 25.375 C3.35626812 29.3141696 0.18247201 32.52883134 -5.36328125 33.078125 C-10.46868316 33.18393644 -13.97837779 32.86072863 -18.3125 29.875 C-22.96379677 25.35472567 -25.00157659 22.10860349 -25.625 15.625 C-25.17000209 10.16502504 -23.63292613 6.08849405 -19.6171875 2.2578125 C-13.43376511 -2.17322298 -7.08983923 -2.40786993 0 0 Z " fill="#FC9E77" transform="translate(296.3125,273.125)"/>
<path d="M0 0 C4.572558 2.201602 8.56135889 5.47109509 11 10 C12.45500315 15.04175508 12.61021763 19.48322427 10.4375 24.3125 C7.70831906 28.99380342 4.20872906 32.26375698 -1 34 C-7.55694743 34.77514301 -11.65584898 33.87712917 -17 30 C-20.65643881 26.24473852 -22.93850333 22.40964878 -23.03515625 17.05078125 C-22.5486912 10.82165555 -20.08383128 6.83575613 -15.375 2.6875 C-10.4803175 -0.79030072 -5.87599552 -0.59092873 0 0 Z " fill="#FC9E77" transform="translate(69,272)"/>
<path d="M0 0 C4.57631731 2.45124556 7.68661628 5.66229505 9.99609375 10.28125 C10.50339025 15.83656248 10.75869797 20.69955236 8.30859375 25.78125 C3.73137381 30.72959588 0.1247593 33.37803916 -6.69140625 33.65625 C-12.23441245 33.5753302 -15.98131198 32.11847127 -20.00390625 28.28125 C-23.48697121 23.57812838 -24.75039767 19.14653975 -24.00390625 13.28125 C-22.20087001 7.23577555 -19.12799848 3.75165792 -14.00390625 0.28125 C-9.41328016 -1.2489587 -4.62850487 -1.6601265 0 0 Z " fill="#FC9E77" transform="translate(295.00390625,47.71875)"/>
<path d="M0 0 C4.6399189 3.16358107 8.48609103 7.31380055 9.75 12.875 C10.10685648 18.75803398 9.29901052 22.82570971 5.4375 27.375 C2.32564619 30.66910989 -0.2816492 32.6192928 -4.8359375 33.2109375 C-10.84419376 33.29508675 -14.59271849 33.07791259 -19.25 28.875 C-22.86512218 25.0590377 -25.18801649 21.31164141 -25.28515625 15.92578125 C-24.79994623 9.71272615 -22.32952355 5.7516432 -17.6875 1.5625 C-12.30660892 -2.16273229 -6.04005985 -2.09078995 0 0 Z " fill="#FC9E77" transform="translate(71.25,48.125)"/>
<path d="M0 0 C4.14982912 3.47427555 7.33792705 6.72065769 7.890625 12.30078125 C7.99628583 17.39891633 7.64874966 20.90683383 4.6875 25.25 C0.54188914 29.30348618 -3.28994766 32.18538069 -9.2578125 32.28125 C-15.47273576 31.80863226 -19.4371854 29.32805132 -23.625 24.6875 C-26.94277425 19.89515942 -26.95526558 14.89401007 -26.3125 9.25 C-24.5625 5.875 -24.5625 5.875 -22.3125 3.25 C-21.69375 2.5075 -21.075 1.765 -20.4375 1 C-14.25674428 -4.09003412 -6.77599919 -3.57977316 0 0 Z " fill="#FD9E77" transform="translate(185.3125,320.75)"/>
<path d="M0 0 C3.69465673 3.02290096 6.23041637 5.6912491 7.75 10.25 C8.31384129 15.94262838 8.05719906 20.39944138 4.75 25.25 C0.61590539 29.29222584 -3.25532171 32.25787905 -9.23046875 32.24609375 C-15.23027342 31.7170303 -19.06380691 29.78533238 -23 25.1875 C-26.9517933 20.0282143 -26.90873067 15.62976137 -26.25 9.25 C-24.5 5.8125 -24.5 5.8125 -22.25 3.25 C-21.651875 2.5075 -21.05375 1.765 -20.4375 1 C-14.18458954 -4.00232837 -6.70810585 -3.612057 0 0 Z " fill="#FD9E77" transform="translate(344.25,161.75)"/>
<path d="M0 0 C3.69465673 3.02290096 6.23041637 5.6912491 7.75 10.25 C8.31384129 15.94262838 8.05719906 20.39944138 4.75 25.25 C0.8113431 29.01741095 -2.73875992 32.25641909 -8.38671875 32.24609375 C-14.79455986 31.74829452 -18.77049967 30.11390663 -23 25.1875 C-26.81109309 20.21190624 -26.76087847 16.39000237 -26.25 10.25 C-24.48912588 5.06520398 -21.6918063 2.38539268 -17.25 -0.75 C-11.14730504 -3.6686802 -5.84469499 -3.14714345 0 0 Z " fill="#FD9E77" transform="translate(185.25,2.75)"/>
<path d="M0 0 C3.69465673 3.02290096 6.23041637 5.6912491 7.75 10.25 C8.31384129 15.94262838 8.05719906 20.39944138 4.75 25.25 C0.60438914 29.30348618 -3.22744766 32.18538069 -9.1953125 32.28125 C-15.41023576 31.80863226 -19.3746854 29.32805132 -23.5625 24.6875 C-26.74293734 20.09353495 -26.75021734 15.65049459 -26.25 10.25 C-24.46025319 5.07962032 -21.68920876 2.38355912 -17.25 -0.75 C-11.14730504 -3.6686802 -5.84469499 -3.14714345 0 0 Z " fill="#FE9F77" transform="translate(26.25,161.75)"/>
</svg>
